<?xml version="1.0" encoding="UTF-8"?>
<svg xmlns="http://www.w3.org/2000/svg" xmlns:xlink="http://www.w3.org/1999/xlink" width="317pt" height="106pt" viewBox="0 0 317 106" version="1.1">
<defs>
<filter id="alpha" filterUnits="objectBoundingBox" x="0%" y="0%" width="100%" height="100%">
  <feColorMatrix type="matrix" in="SourceGraphic" values="0 0 0 0 1 0 0 0 0 1 0 0 0 0 1 0 0 0 1 0"/>
</filter>
<mask id="mask0">
  <g filter="url(#alpha)">
<rect x="0" y="0" width="317" height="106" style="fill:rgb(0%,0%,0%);fill-opacity:0.501961;stroke:none;"/>
  </g>
</mask>
<clipPath id="clip1">
  <rect x="0" y="0" width="317" height="106"/>
</clipPath>
<g id="surface5" clip-path="url(#clip1)">
<path style="fill-rule:nonzero;fill:rgb(92.54902%,92.54902%,92.941176%);fill-opacity:1;stroke-width:0.5;stroke-linecap:butt;stroke-linejoin:miter;stroke:rgb(10.588235%,9.803922%,9.411765%);stroke-opacity:1;stroke-miterlimit:4;" d="M 4449.950217 2540.10031 C 4590.108192 2979.903818 4559.980777 3559.953457 4550.025631 3550.029149 " transform="matrix(0.0149106,0,0,0.014957,0,0)"/>
</g>
</defs>
<g id="surface1">
<path style=" stroke:none;fill-rule:evenodd;fill:rgb(6.27451%,16.470588%,51.372549%);fill-opacity:1;" d="M 226.910156 68.550781 C 234.214844 68.550781 240.085938 62.601562 240.085938 55.332031 L 240.085938 45.722656 C 240.085938 38.453125 234.214844 32.503906 226.910156 32.503906 C 219.660156 32.503906 213.730469 38.453125 213.730469 45.722656 L 213.730469 55.332031 C 213.730469 62.601562 219.660156 68.550781 226.910156 68.550781 Z M 220.917969 45.722656 C 220.917969 42.417969 223.613281 39.714844 226.910156 39.714844 C 230.261719 39.714844 232.898438 42.417969 232.898438 45.722656 L 232.898438 55.332031 C 232.898438 58.636719 230.261719 61.339844 226.910156 61.339844 C 223.613281 61.339844 220.917969 58.636719 220.917969 55.332031 Z M 220.917969 45.722656 "/>
<path style=" stroke:none;fill-rule:evenodd;fill:rgb(6.27451%,16.470588%,51.372549%);fill-opacity:1;" d="M 182.410156 44.519531 C 182.410156 37.789062 176.777344 32.503906 170.3125 32.503906 L 157.914062 32.503906 C 157.554688 32.503906 157.253906 32.746094 157.253906 33.105469 L 157.253906 67.949219 C 157.253906 68.25 157.554688 68.550781 157.914062 68.550781 L 163.84375 68.550781 C 164.203125 68.550781 164.441406 68.25 164.441406 67.949219 L 164.441406 56.535156 L 166.835938 56.535156 L 174.613281 67.890625 C 174.792969 68.308594 175.214844 68.550781 175.691406 68.550781 L 182.339844 68.550781 C 182.699219 68.550781 182.9375 68.25 182.9375 67.949219 C 182.9375 67.828125 182.9375 67.769531 182.878906 67.648438 L 174.804688 55.695312 C 179.234375 53.953125 182.410156 49.566406 182.410156 44.519531 Z M 164.441406 39.714844 L 170.492188 39.714844 C 173.125 39.714844 175.28125 41.875 175.28125 44.519531 C 175.28125 47.164062 173.125 49.324219 170.492188 49.324219 L 164.441406 49.324219 Z M 164.441406 39.714844 "/>
<path style=" stroke:none;fill-rule:evenodd;fill:rgb(0%,0.784314%,0%);fill-opacity:1;" d="M 128.472656 54.132812 C 128.699219 54.132812 128.925781 53.890625 128.925781 53.53125 L 128.925781 47.523438 C 128.925781 47.222656 128.699219 46.921875 128.472656 46.921875 L 110.332031 46.921875 C 110.0625 46.921875 109.878906 47.222656 109.878906 47.523438 L 109.878906 53.53125 C 109.878906 53.890625 110.0625 54.132812 110.332031 54.132812 Z M 128.472656 54.132812 "/>
<path style=" stroke:none;fill-rule:evenodd;fill:rgb(6.27451%,16.470588%,51.372549%);fill-opacity:1;" d="M 110.480469 32.503906 C 110.179688 32.503906 109.878906 32.804688 109.878906 33.105469 L 109.878906 39.113281 C 109.878906 39.472656 110.179688 39.714844 110.480469 39.714844 L 139.886719 39.714844 C 143.238281 39.714844 145.875 42.417969 145.875 45.722656 L 145.875 55.332031 C 145.875 58.636719 143.238281 61.339844 139.886719 61.339844 L 110.480469 61.339844 C 110.179688 61.339844 109.878906 61.640625 109.878906 61.941406 L 109.878906 67.949219 C 109.878906 68.308594 110.179688 68.550781 110.480469 68.550781 L 139.886719 68.550781 C 147.191406 68.550781 153.0625 62.601562 153.0625 55.332031 L 153.0625 45.722656 C 153.0625 38.390625 147.191406 32.503906 139.886719 32.503906 Z M 110.480469 32.503906 "/>
<path style=" stroke:none;fill-rule:evenodd;fill:rgb(6.27451%,16.470588%,51.372549%);fill-opacity:1;" d="M 93.589844 32.503906 L 81.132812 32.503906 C 80.832031 32.503906 80.59375 32.746094 80.59375 33.105469 L 80.59375 67.949219 C 80.59375 68.25 80.832031 68.550781 81.132812 68.550781 L 87.121094 68.550781 C 87.480469 68.550781 87.71875 68.25 87.71875 67.949219 L 87.71875 56.535156 L 93.710938 56.535156 C 100.296875 56.535156 105.6875 51.1875 105.6875 44.578125 C 105.6875 37.851562 100.179688 32.503906 93.589844 32.503906 Z M 93.710938 49.324219 L 87.71875 49.324219 L 87.71875 39.714844 L 93.710938 39.714844 C 96.34375 39.714844 98.5 41.875 98.5 44.519531 C 98.5 47.164062 96.34375 49.324219 93.710938 49.324219 Z M 93.710938 49.324219 "/>
<path style=" stroke:none;fill-rule:evenodd;fill:rgb(6.27451%,16.470588%,51.372549%);fill-opacity:1;" d="M 193.757812 63.746094 L 203.160156 63.746094 L 204.316406 67.945312 C 204.414062 68.304688 204.777344 68.542969 205.078125 68.542969 L 211.066406 68.542969 C 211.425781 68.542969 211.601562 68.304688 211.5 67.945312 L 201.941406 33.148438 C 201.84375 32.789062 201.535156 32.550781 201.175781 32.550781 L 194.109375 32.550781 C 193.691406 32.550781 193.335938 32.789062 193.273438 33.210938 L 184.347656 67.644531 C 184.320312 67.765625 184.339844 67.824219 184.371094 67.945312 C 184.453125 68.246094 184.777344 68.542969 185.136719 68.542969 L 191.78125 68.542969 C 192.261719 68.542969 192.617188 68.304688 192.679688 67.882812 Z M 198.296875 46.046875 L 201.183594 56.546875 L 195.613281 56.546875 Z M 198.296875 46.046875 "/>
<path style="fill-rule:evenodd;fill:rgb(0%,0.784314%,0%);fill-opacity:1;stroke-width:0.5;stroke-linecap:butt;stroke-linejoin:miter;stroke:rgb(10.588235%,9.803922%,9.411765%);stroke-opacity:1;stroke-miterlimit:4;" d="M 13047.266611 5026.922759 L 13019.235016 5019.871278 L 13151.271688 4856.120209 L 13229.34099 4916.710716 L 13107.783419 5016.47612 C 13113.546924 5015.953788 13119.31043 5015.953788 13125.073935 5015.953788 C 13263.398068 5015.953788 13365.83128 5124.076504 13365.83128 5261.188642 C 13365.83128 5404.307599 13269.947506 5517.653634 13122.45416 5517.653634 C 12976.008724 5517.653634 12879.339018 5404.307599 12879.339018 5261.710974 C 12879.339018 5146.536778 12946.405264 5057.218013 13047.266611 5026.922759 Z M 9013.598679 5366.699698 L 8887.58749 5366.699698 L 8830.214412 5515.30314 L 8730.138998 5506.945828 L 8922.168523 5026.922759 L 8997.356073 5022.482938 L 9179.430451 5507.990492 L 9065.732206 5513.474978 Z M 9918.469046 5296.44605 C 9918.469046 5337.710274 9918.207068 5385.503648 9898.820731 5422.850383 C 9893.319203 5433.558188 9886.507788 5443.482496 9878.648462 5452.884471 C 9839.351834 5500.677845 9783.812599 5517.653634 9723.295791 5517.653634 C 9655.181634 5517.653634 9588.639343 5492.842866 9554.582265 5430.424197 C 9551.96249 5425.200877 9549.342715 5419.977557 9546.984917 5414.754238 C 9531.790221 5377.929835 9532.314176 5330.658793 9532.314176 5291.483896 L 9532.314176 5023.527602 L 9637.891118 5023.527602 L 9637.891118 5292.789726 C 9637.891118 5320.47332 9637.105185 5363.826872 9650.728017 5388.898806 C 9652.823837 5392.816296 9655.443612 5396.733785 9658.063387 5400.128943 C 9674.044016 5421.805719 9700.503746 5429.379533 9726.439521 5429.379533 C 9762.068464 5429.379533 9793.505767 5415.537736 9807.914531 5381.586159 C 9809.224418 5378.452167 9810.534306 5375.057009 9811.582216 5371.923017 C 9814.201991 5363.30454 9815.511879 5354.686063 9816.035834 5345.80642 C 9817.607699 5328.047133 9817.345722 5309.504348 9817.345722 5291.483896 L 9817.345722 5023.527602 L 9918.469046 5023.527602 Z M 10546.167192 5111.801703 L 10546.167192 5510.07982 L 10440.066295 5510.07982 L 10440.066295 5111.801703 L 10300.95623 5111.801703 L 10300.95623 5023.527602 L 10689.730875 5023.527602 L 10689.730875 5111.801703 Z M 11527.273019 5261.188642 C 11527.273019 5404.307599 11431.127267 5517.653634 11283.895899 5517.653634 C 11137.188486 5517.653634 11040.51878 5404.307599 11040.51878 5261.710974 C 11040.51878 5119.11435 11143.475946 5015.953788 11286.253697 5015.953788 C 11424.577829 5015.953788 11527.273019 5124.076504 11527.273019 5261.188642 Z M 12352.240241 5210.000111 L 12225.705097 5503.811837 L 12167.546086 5503.811837 L 12041.534897 5212.872936 L 12023.196471 5512.430314 L 11926.526765 5507.729326 L 11957.70209 5023.527602 L 12070.87638 5023.527602 L 12202.127119 5334.315116 L 12331.020061 5023.527602 L 12442.622486 5023.527602 L 12480.085272 5506.684662 L 12376.080195 5513.474978 Z M 13925.41527 5337.449108 L 14046.710864 5014.125626 L 14146.5243 5035.802403 L 13953.97082 5510.07982 L 13882.712934 5510.07982 L 13705.092173 5035.018905 L 13812.24098 5014.647958 Z M 14624.895258 5111.801703 L 14624.895258 5211.30594 L 14780.509907 5211.30594 L 14780.509907 5300.363539 L 14624.895258 5300.363539 L 14624.895258 5421.805719 L 14810.8993 5421.805719 L 14810.8993 5510.07982 L 14519.580294 5510.07982 L 14519.580294 5023.527602 L 14783.653638 5023.527602 L 14783.653638 5111.801703 Z M 15316.515921 5510.07982 L 15210.938979 5510.07982 L 15210.938979 5023.527602 L 15316.515921 5023.527602 Z M 15845.710519 5292.006228 C 15836.541305 5285.738244 15827.634069 5279.209095 15818.726834 5272.679945 C 15775.238565 5241.340028 15739.871599 5199.553471 15739.871599 5143.402786 C 15739.871599 5111.279371 15753.49443 5080.200619 15776.548452 5057.740345 C 15807.985755 5026.661593 15851.736002 5015.953788 15894.700315 5015.953788 C 15942.642202 5015.953788 15995.299685 5034.235407 16026.213032 5072.104474 L 16038.263998 5086.729769 L 15975.127415 5155.938753 L 15959.146786 5135.828973 C 15942.380225 5114.674528 15920.374113 5104.227889 15893.390428 5104.227889 C 15865.882788 5104.227889 15847.806339 5114.674528 15848.592271 5143.663952 C 15849.116226 5162.467902 15864.5729 5176.570865 15878.195731 5187.539836 C 15882.125394 5190.673828 15886.84099 5193.80782 15891.03263 5196.41948 C 15898.368001 5201.381633 15905.441394 5206.082621 15912.776765 5210.783608 C 15914.34863 5212.089438 15916.182472 5213.134102 15918.016315 5214.439932 C 15926.923551 5220.44675 15936.092764 5226.192401 15944.476045 5232.721551 C 15993.727819 5269.023622 16036.430156 5307.937353 16036.430156 5372.967681 C 16036.430156 5391.2493 16033.024448 5409.008586 16025.951055 5425.723209 C 15999.229347 5490.492372 15932.425079 5517.653634 15866.406743 5517.653634 C 15814.273216 5517.653634 15762.925621 5500.416679 15728.606565 5459.935952 L 15718.389442 5447.661151 L 15770.522969 5364.61037 L 15789.647328 5389.94347 C 15804.842025 5410.05325 15843.090743 5429.379533 15868.240586 5429.379533 C 15901.511731 5429.379533 15928.495416 5415.798902 15927.709483 5379.235665 C 15927.185528 5356.253059 15907.799192 5337.97144 15891.818563 5323.868477 C 15889.198787 5321.779149 15886.579012 5319.689822 15883.697259 5317.600494 C 15879.505619 5314.727668 15875.313979 5312.116008 15871.122338 5309.504348 C 15862.47708 5303.758697 15854.093799 5298.013045 15845.710519 5292.006228 Z M 8984.519174 5283.387751 L 8952.819894 5190.673828 L 8919.548748 5283.387751 Z M 11415.408616 5267.978958 C 11415.408616 5183.100015 11374.8021 5104.227889 11281.276124 5104.227889 C 11191.679811 5104.227889 11152.121205 5187.539836 11152.121205 5266.934294 C 11152.121205 5348.418079 11192.203766 5429.379533 11283.895899 5429.379533 C 11307.735854 5429.379533 11330.789876 5423.372715 11351.224123 5410.314416 C 11398.118099 5379.757997 11415.408616 5321.517983 11415.408616 5267.978958 Z M 13254.228854 5267.978958 C 13254.228854 5183.100015 13213.622338 5104.227889 13120.096362 5104.227889 C 13030.500049 5104.227889 12990.941443 5187.539836 12990.941443 5266.934294 C 12990.941443 5348.418079 13031.024004 5429.379533 13122.45416 5429.379533 C 13146.556092 5429.379533 13169.610114 5423.372715 13189.782384 5410.314416 C 13236.938338 5379.757997 13254.228854 5321.517983 13254.228854 5267.978958 Z M 13254.228854 5267.978958 " transform="matrix(0.0149106,0,0,0.014957,0,0)"/>
<path style=" stroke:none;fill-rule:evenodd;fill:rgb(0%,0.784314%,0%);fill-opacity:1;" d="M 84.601562 76.203125 C 86.179688 76.203125 87.464844 77.488281 87.464844 79.074219 C 87.464844 80.664062 86.179688 81.949219 84.601562 81.949219 C 83.019531 81.949219 81.738281 80.664062 81.738281 79.074219 C 81.738281 77.488281 83.019531 76.203125 84.601562 76.203125 Z M 84.601562 76.203125 "/>
<path style=" stroke:none;fill-rule:evenodd;fill:rgb(10.588235%,9.803922%,9.411765%);fill-opacity:1;" d="M 95.96875 76.203125 C 97.550781 76.203125 98.832031 77.488281 98.832031 79.074219 C 98.832031 80.664062 97.550781 81.949219 95.96875 81.949219 C 94.386719 81.949219 93.105469 80.664062 93.105469 79.074219 C 93.105469 77.488281 94.386719 76.203125 95.96875 76.203125 Z M 95.96875 76.203125 "/>
<path style=" stroke:none;fill-rule:evenodd;fill:rgb(0%,0.784314%,0%);fill-opacity:1;" d="M 107.574219 76.203125 C 109.152344 76.203125 110.4375 77.488281 110.4375 79.074219 C 110.4375 80.664062 109.152344 81.949219 107.574219 81.949219 C 105.992188 81.949219 104.710938 80.664062 104.710938 79.074219 C 104.710938 77.488281 105.992188 76.203125 107.574219 76.203125 Z M 107.574219 76.203125 "/>
<path style=" stroke:none;fill-rule:evenodd;fill:rgb(6.27451%,16.470588%,51.372549%);fill-opacity:1;" d="M 201.132812 30.683594 C 201.207031 30.757812 201.3125 30.832031 201.421875 30.832031 C 201.496094 30.832031 201.566406 30.792969 201.640625 30.757812 L 204.722656 28.867188 C 204.832031 28.792969 204.902344 28.683594 204.902344 28.574219 C 204.902344 28.503906 204.867188 28.429688 204.832031 28.355469 C 203.5625 26.539062 201.53125 25.554688 199.464844 25.554688 C 197.433594 25.554688 196.238281 26.828125 195.003906 26.828125 C 194.316406 26.828125 193.664062 26.539062 193.265625 26.027344 C 193.191406 25.957031 193.082031 25.917969 192.972656 25.917969 C 192.902344 25.917969 192.828125 25.917969 192.792969 25.957031 L 189.671875 27.882812 C 189.601562 27.921875 189.527344 28.066406 189.527344 28.175781 C 189.527344 28.246094 189.527344 28.320312 189.601562 28.394531 C 190.871094 30.210938 192.902344 31.195312 194.96875 31.195312 C 196.960938 31.195312 198.125 29.921875 199.574219 29.921875 C 200.261719 29.921875 200.769531 30.285156 201.132812 30.683594 Z M 201.132812 30.683594 "/>
<use xlink:href="#surface5" mask="url(#mask0)"/>
</g>
</svg>
