<?xml version="1.0" encoding="UTF-8"?>
<svg xmlns="http://www.w3.org/2000/svg" xmlns:xlink="http://www.w3.org/1999/xlink" width="500px" height="167px" viewBox="0 0 500 167" version="1.1">
<defs>
<filter id="alpha" filterUnits="objectBoundingBox" x="0%" y="0%" width="100%" height="100%">
  <feColorMatrix type="matrix" in="SourceGraphic" values="0 0 0 0 1 0 0 0 0 1 0 0 0 0 1 0 0 0 1 0"/>
</filter>
<mask id="mask0">
  <g filter="url(#alpha)">
<rect x="0" y="0" width="500" height="167" style="fill:rgb(0%,0%,0%);fill-opacity:0.501961;stroke:none;"/>
  </g>
</mask>
<clipPath id="clip1">
  <rect x="0" y="0" width="500" height="167"/>
</clipPath>
<g id="surface5" clip-path="url(#clip1)">
<path style="fill-rule:nonzero;fill:rgb(92.54902%,92.54902%,92.941176%);fill-opacity:1;stroke-width:0.5;stroke-linecap:butt;stroke-linejoin:miter;stroke:rgb(10.588235%,9.803922%,9.411765%);stroke-opacity:1;stroke-miterlimit:4;" d="M 4449.98375 2539.928284 C 4590.000781 2980.047694 4559.937813 3560.077002 4549.972188 3549.965031 " transform="matrix(0.0235183,0,0,0.0235643,0,0)"/>
</g>
</defs>
<g id="surface1">
<path style=" stroke:none;fill-rule:evenodd;fill:rgb(6.27451%,16.470588%,51.372549%);fill-opacity:1;" d="M 357.898438 108 C 369.425781 108 378.683594 98.628906 378.683594 87.175781 L 378.683594 72.03125 C 378.683594 60.578125 369.425781 51.210938 357.898438 51.210938 C 346.46875 51.210938 337.117188 60.578125 337.117188 72.03125 L 337.117188 87.175781 C 337.117188 98.628906 346.46875 108 357.898438 108 Z M 348.453125 72.03125 C 348.453125 66.828125 352.703125 62.566406 357.898438 62.566406 C 363.191406 62.566406 367.347656 66.828125 367.347656 72.03125 L 367.347656 87.175781 C 367.347656 92.382812 363.191406 96.640625 357.898438 96.640625 C 352.703125 96.640625 348.453125 92.382812 348.453125 87.175781 Z M 348.453125 72.03125 "/>
<path style=" stroke:none;fill-rule:evenodd;fill:rgb(6.27451%,16.470588%,51.372549%);fill-opacity:1;" d="M 287.710938 70.140625 C 287.710938 59.539062 278.832031 51.210938 268.628906 51.210938 L 249.074219 51.210938 C 248.507812 51.210938 248.035156 51.585938 248.035156 52.15625 L 248.035156 107.054688 C 248.035156 107.527344 248.507812 108 249.074219 108 L 258.425781 108 C 258.992188 108 259.371094 107.527344 259.371094 107.054688 L 259.371094 89.070312 L 263.148438 89.070312 L 275.417969 106.957031 C 275.699219 107.621094 276.363281 108 277.117188 108 L 287.601562 108 C 288.167969 108 288.546875 107.527344 288.546875 107.054688 C 288.546875 106.863281 288.546875 106.769531 288.453125 106.578125 L 275.714844 87.746094 C 282.703125 85 287.710938 78.089844 287.710938 70.140625 Z M 259.371094 62.566406 L 268.914062 62.566406 C 273.070312 62.566406 276.46875 65.976562 276.46875 70.140625 C 276.46875 74.304688 273.070312 77.710938 268.914062 77.710938 L 259.371094 77.710938 Z M 259.371094 62.566406 "/>
<path style=" stroke:none;fill-rule:evenodd;fill:rgb(0%,0.784314%,0%);fill-opacity:1;" d="M 202.640625 85.285156 C 202.996094 85.285156 203.355469 84.90625 203.355469 84.335938 L 203.355469 74.871094 C 203.355469 74.398438 202.996094 73.925781 202.640625 73.925781 L 174.027344 73.925781 C 173.597656 73.925781 173.3125 74.398438 173.3125 74.871094 L 173.3125 84.335938 C 173.3125 84.90625 173.597656 85.285156 174.027344 85.285156 Z M 202.640625 85.285156 "/>
<path style=" stroke:none;fill-rule:evenodd;fill:rgb(6.27451%,16.470588%,51.372549%);fill-opacity:1;" d="M 174.257812 51.210938 C 173.785156 51.210938 173.3125 51.683594 173.3125 52.15625 L 173.3125 61.621094 C 173.3125 62.1875 173.785156 62.566406 174.257812 62.566406 L 220.640625 62.566406 C 225.929688 62.566406 230.085938 66.828125 230.085938 72.03125 L 230.085938 87.175781 C 230.085938 92.382812 225.929688 96.640625 220.640625 96.640625 L 174.257812 96.640625 C 173.785156 96.640625 173.3125 97.113281 173.3125 97.589844 L 173.3125 107.054688 C 173.3125 107.621094 173.785156 108 174.257812 108 L 220.640625 108 C 232.164062 108 241.421875 98.628906 241.421875 87.175781 L 241.421875 72.03125 C 241.421875 60.484375 232.164062 51.210938 220.640625 51.210938 Z M 174.257812 51.210938 "/>
<path style=" stroke:none;fill-rule:evenodd;fill:rgb(6.27451%,16.470588%,51.372549%);fill-opacity:1;" d="M 147.617188 51.210938 L 127.96875 51.210938 C 127.496094 51.210938 127.117188 51.585938 127.117188 52.15625 L 127.117188 107.054688 C 127.117188 107.527344 127.496094 108 127.96875 108 L 137.414062 108 C 137.980469 108 138.359375 107.527344 138.359375 107.054688 L 138.359375 89.070312 L 147.808594 89.070312 C 158.199219 89.070312 166.699219 80.644531 166.699219 70.234375 C 166.699219 59.632812 158.007812 51.210938 147.617188 51.210938 Z M 147.808594 77.710938 L 138.359375 77.710938 L 138.359375 62.566406 L 147.808594 62.566406 C 151.964844 62.566406 155.363281 65.976562 155.363281 70.140625 C 155.363281 74.304688 151.964844 77.710938 147.808594 77.710938 Z M 147.808594 77.710938 "/>
<path style=" stroke:none;fill-rule:evenodd;fill:rgb(6.27451%,16.470588%,51.372549%);fill-opacity:1;" d="M 305.613281 100.429688 L 320.441406 100.429688 L 322.261719 107.042969 C 322.417969 107.613281 322.996094 107.988281 323.46875 107.988281 L 332.914062 107.988281 C 333.480469 107.988281 333.753906 107.613281 333.597656 107.042969 L 318.519531 52.226562 C 318.363281 51.660156 317.878906 51.28125 317.3125 51.28125 L 306.167969 51.28125 C 305.503906 51.28125 304.949219 51.660156 304.847656 52.320312 L 290.769531 106.570312 C 290.726562 106.761719 290.753906 106.855469 290.804688 107.042969 C 290.9375 107.515625 291.445312 107.988281 292.011719 107.988281 L 302.496094 107.988281 C 303.253906 107.988281 303.808594 107.613281 303.910156 106.949219 Z M 312.773438 72.546875 L 317.324219 89.085938 L 308.539062 89.085938 Z M 312.773438 72.546875 "/>
<path style="fill-rule:evenodd;fill:rgb(0%,0.784314%,0%);fill-opacity:1;stroke-width:0.5;stroke-linecap:butt;stroke-linejoin:miter;stroke:rgb(10.588235%,9.803922%,9.411765%);stroke-opacity:1;stroke-miterlimit:4;" d="M 13047.162344 5026.975931 L 13019.258594 5020.01359 L 13151.137031 4856.067038 L 13229.367188 4916.738866 L 13107.786563 5016.36665 C 13113.43375 5016.035109 13119.247031 5015.869339 13125.060313 5015.869339 C 13263.250313 5015.869339 13365.89625 5123.951394 13365.89625 5261.043203 C 13365.89625 5404.268502 13270.060156 5517.655197 13122.568906 5517.655197 C 12975.908125 5517.655197 12879.241563 5404.434272 12879.241563 5261.706283 C 12879.241563 5146.661887 12946.343438 5057.311845 13047.162344 5026.975931 Z M 9013.575625 5366.638707 L 8887.510469 5366.638707 L 8830.208125 5515.168647 L 8730.219688 5507.045916 L 8922.224063 5026.810161 L 8997.464531 5022.50014 L 9179.337188 5508.040536 L 9065.729063 5513.345177 Z M 9918.454375 5296.517987 C 9918.454375 5337.628953 9918.288281 5385.53649 9898.855312 5423.000515 C 9893.208125 5433.609796 9886.398281 5443.555997 9878.757969 5452.839119 C 9839.39375 5500.580885 9783.752344 5517.655197 9723.128125 5517.655197 C 9655.029688 5517.655197 9588.592188 5492.789694 9554.542969 5430.294396 C 9551.885469 5425.321295 9549.227969 5420.016654 9547.06875 5414.712013 C 9531.622031 5378.076839 9532.286406 5330.500842 9532.286406 5291.379117 L 9532.286406 5023.49476 L 9637.755938 5023.49476 L 9637.755938 5292.705277 C 9637.755938 5320.388871 9637.091563 5363.820617 9650.71125 5389.01766 C 9652.870469 5392.830371 9655.361875 5396.643081 9658.019375 5400.290022 C 9674.130469 5421.674354 9700.373281 5429.299775 9726.45 5429.299775 C 9761.994062 5429.299775 9793.385781 5415.540864 9807.835938 5381.558009 C 9809.164688 5378.242609 9810.493438 5375.092978 9811.49 5371.777578 C 9814.313594 5363.323307 9815.47625 5354.869035 9816.140625 5345.917454 C 9817.635469 5328.014292 9817.469375 5309.448049 9817.469375 5291.379117 L 9817.469375 5023.49476 L 9918.454375 5023.49476 Z M 10546.122656 5111.850182 L 10546.122656 5510.195546 L 10439.98875 5510.195546 L 10439.98875 5111.850182 L 10300.968281 5111.850182 L 10300.968281 5023.49476 L 10689.627656 5023.49476 L 10689.627656 5111.850182 Z M 11527.072344 5261.043203 C 11527.072344 5404.268502 11431.23625 5517.655197 11283.745 5517.655197 C 11137.084219 5517.655197 11040.417656 5404.434272 11040.417656 5261.706283 C 11040.417656 5118.978293 11143.561875 5015.869339 11286.4025 5015.869339 C 11424.5925 5015.869339 11527.072344 5123.951394 11527.072344 5261.043203 Z M 12352.226094 5210.151806 L 12225.662656 5503.896286 L 12167.529844 5503.896286 L 12041.630781 5212.804126 L 12023.194375 5512.516327 L 11926.527813 5507.708996 L 11957.753438 5023.49476 L 12070.863281 5023.49476 L 12202.077344 5334.147783 L 12330.966094 5023.49476 L 12442.747188 5023.49476 L 12480.118281 5506.880146 L 12375.9775 5513.345177 Z M 13925.3 5337.463183 L 14046.714531 5014.211639 L 14146.536875 5035.761742 L 13954.034219 5510.195546 L 13882.78 5510.195546 L 13705.225781 5035.098662 L 13812.190156 5014.543179 Z M 14624.886875 5111.850182 L 14624.886875 5211.146426 L 14780.516719 5211.146426 L 14780.516719 5300.330698 L 14624.886875 5300.330698 L 14624.886875 5421.674354 L 14810.745781 5421.674354 L 14810.745781 5510.195546 L 14519.417344 5510.195546 L 14519.417344 5023.49476 L 14783.6725 5023.49476 L 14783.6725 5111.850182 Z M 15316.335156 5510.195546 L 15211.031719 5510.195546 L 15211.031719 5023.49476 L 15316.335156 5023.49476 Z M 15845.509844 5291.876427 C 15836.374688 5285.742936 15827.571719 5279.112135 15818.602656 5272.647104 C 15775.252188 5241.31657 15739.874219 5199.708294 15739.874219 5143.512257 C 15739.874219 5111.187102 15753.493906 5080.188108 15776.414844 5057.643385 C 15807.972656 5026.810161 15851.655313 5015.869339 15894.839688 5015.869339 C 15942.508594 5015.869339 15995.326406 5034.269812 16026.219844 5072.065377 L 16038.344688 5086.818909 L 15975.229063 5155.945008 L 15959.117969 5135.721066 C 15942.3425 5114.668273 15920.252031 5104.224761 15893.510938 5104.224761 C 15865.939375 5104.224761 15847.835156 5114.834043 15848.499531 5143.678027 C 15848.997813 5162.575809 15864.444531 5176.666261 15878.230313 5187.607083 C 15882.050469 5190.756713 15886.867188 5193.740574 15891.019531 5196.392894 C 15898.327656 5201.200225 15905.635781 5206.007555 15912.777813 5210.814886 C 15914.43875 5211.975276 15916.265781 5213.135666 15917.926719 5214.461826 C 15926.895781 5220.429547 15936.030938 5226.231498 15944.501719 5232.696529 C 15993.665469 5269.000164 16036.351563 5307.956119 16036.351563 5372.937968 C 16036.351563 5391.17267 16032.863594 5409.075833 16026.05375 5425.818605 C 15999.312656 5490.303144 15932.542969 5517.655197 15866.271563 5517.655197 C 15814.450313 5517.655197 15762.96125 5500.415115 15728.745938 5459.96723 L 15718.282031 5447.700248 L 15770.435469 5364.483697 L 15789.702344 5390.01228 C 15804.816875 5410.070453 15843.184531 5429.299775 15868.264688 5429.299775 C 15901.649531 5429.299775 15928.390625 5415.706634 15927.72625 5379.237229 C 15927.227969 5356.195196 15907.961094 5337.960493 15891.683906 5324.035811 C 15889.1925 5321.715031 15886.535 5319.560021 15883.711406 5317.57078 C 15879.559063 5314.75269 15875.240625 5312.10037 15871.088281 5309.448049 C 15862.451406 5303.811868 15853.980625 5297.844148 15845.509844 5291.876427 Z M 8984.509219 5283.256386 L 8952.785313 5190.756713 L 8919.566563 5283.256386 Z M 11415.29125 5268.005544 C 11415.29125 5183.131292 11374.764375 5104.224761 11281.253594 5104.224761 C 11191.729063 5104.224761 11152.19875 5187.607083 11152.19875 5266.845153 C 11152.19875 5348.404004 11192.227344 5429.299775 11283.745 5429.299775 C 11307.828594 5429.299775 11330.915625 5423.332055 11351.179063 5410.236223 C 11398.183594 5379.734539 11415.29125 5321.549261 11415.29125 5268.005544 Z M 13254.115156 5268.005544 C 13254.115156 5183.131292 13213.588281 5104.224761 13120.0775 5104.224761 C 13030.552969 5104.224761 12991.022656 5187.607083 12991.022656 5266.845153 C 12991.022656 5348.404004 13030.885156 5429.299775 13122.568906 5429.299775 C 13146.486406 5429.299775 13169.573438 5423.332055 13189.836875 5410.236223 C 13237.0075 5379.734539 13254.115156 5321.549261 13254.115156 5268.005544 Z M 13254.115156 5268.005544 " transform="matrix(0.0235183,0,0,0.0235643,0,0)"/>
<path style=" stroke:none;fill-rule:evenodd;fill:rgb(0%,0.784314%,0%);fill-opacity:1;" d="M 133.4375 120.058594 C 135.933594 120.058594 137.953125 122.082031 137.953125 124.582031 C 137.953125 127.082031 135.933594 129.105469 133.4375 129.105469 C 130.945312 129.105469 128.921875 127.082031 128.921875 124.582031 C 128.921875 122.082031 130.945312 120.058594 133.4375 120.058594 Z M 133.4375 120.058594 "/>
<path style=" stroke:none;fill-rule:evenodd;fill:rgb(10.588235%,9.803922%,9.411765%);fill-opacity:1;" d="M 151.371094 120.058594 C 153.863281 120.058594 155.886719 122.082031 155.886719 124.582031 C 155.886719 127.082031 153.863281 129.105469 151.371094 129.105469 C 148.875 129.105469 146.855469 127.082031 146.855469 124.582031 C 146.855469 122.082031 148.875 120.058594 151.371094 120.058594 Z M 151.371094 120.058594 "/>
<path style=" stroke:none;fill-rule:evenodd;fill:rgb(0%,0.784314%,0%);fill-opacity:1;" d="M 169.671875 120.058594 C 172.167969 120.058594 174.1875 122.082031 174.1875 124.582031 C 174.1875 127.082031 172.167969 129.105469 169.671875 129.105469 C 167.179688 129.105469 165.15625 127.082031 165.15625 124.582031 C 165.15625 122.082031 167.179688 120.058594 169.671875 120.058594 Z M 169.671875 120.058594 "/>
<path style=" stroke:none;fill-rule:evenodd;fill:rgb(6.27451%,16.470588%,51.372549%);fill-opacity:1;" d="M 317.246094 48.34375 C 317.359375 48.457031 317.53125 48.570312 317.703125 48.570312 C 317.816406 48.570312 317.929688 48.515625 318.046875 48.457031 L 322.90625 45.476562 C 323.078125 45.363281 323.191406 45.191406 323.191406 45.019531 C 323.191406 44.902344 323.136719 44.789062 323.078125 44.675781 C 321.078125 41.808594 317.875 40.261719 314.613281 40.261719 C 311.410156 40.261719 309.523438 42.269531 307.578125 42.269531 C 306.492188 42.269531 305.460938 41.808594 304.832031 41.007812 C 304.71875 40.894531 304.546875 40.835938 304.375 40.835938 C 304.261719 40.835938 304.144531 40.835938 304.089844 40.894531 L 299.171875 43.929688 C 299.054688 43.988281 298.941406 44.214844 298.941406 44.386719 C 298.941406 44.503906 298.941406 44.617188 299.054688 44.730469 C 301.058594 47.597656 304.261719 49.144531 307.519531 49.144531 C 310.667969 49.144531 312.496094 47.140625 314.785156 47.140625 C 315.871094 47.140625 316.671875 47.710938 317.246094 48.34375 Z M 317.246094 48.34375 "/>
<use xlink:href="#surface5" mask="url(#mask0)"/>
</g>
</svg>
